<?xml version="1.0" standalone="no"?>
<!DOCTYPE svg PUBLIC "-//W3C//DTD SVG 20010904//EN"
 "http://www.w3.org/TR/2001/REC-SVG-20010904/DTD/svg10.dtd">
<svg version="1.0" xmlns="http://www.w3.org/2000/svg"
 width="1500.000000pt" height="1500.000000pt" viewBox="0 0 500.000000 500.000000"
 preserveAspectRatio="xMidYMid meet">

<g transform="translate(0.000000,500.000000) scale(0.100000,-0.100000)"
fill="#85da82ff" stroke="none">
<path d="M1349 4190 c-182 -14 -286 -57 -394 -165 -75 -75 -123 -155 -152
-251 -16 -55 -18 -146 -21 -1209 -3 -1205 -1 -1291 40 -1395 32 -83 103 -184
161 -231 66 -53 174 -105 252 -121 86 -19 2462 -19 2550 -1 96 20 211 83 280
152 68 69 105 128 137 221 l23 65 0 1245 0 1245 -23 68 c-63 181 -218 316
-418 364 -61 14 -193 16 -1199 18 -621 2 -1178 -1 -1236 -5z m1901 -583 c0 -7
-8 -22 -18 -33 -47 -51 -75 -98 -83 -137 -4 -23 -10 -49 -14 -58 -5 -13 4 -17
54 -22 33 -3 69 -11 80 -19 22 -16 18 -28 -8 -28 -9 0 -36 -16 -60 -35 -24
-19 -47 -35 -50 -35 -28 -1 -29 -19 -6 -75 28 -69 31 -107 11 -125 -21 -17
-41 -3 -79 56 -27 42 -40 52 -86 66 -65 21 -104 55 -132 117 -16 34 -35 55
-76 81 -55 36 -162 141 -184 182 -11 21 -9 20 27 -6 21 -17 53 -40 69 -52 58
-44 216 -113 256 -114 10 0 23 17 33 44 26 67 85 127 166 169 77 39 100 45
100 24z m-1509 -577 c400 -40 636 -149 738 -340 37 -69 69 -183 78 -275 6 -67
7 -68 19 -40 7 17 17 55 23 85 24 126 35 168 57 218 52 119 200 213 404 257
82 18 409 32 484 21 l46 -7 -61 -51 c-103 -86 -144 -157 -168 -298 -29 -165
-72 -258 -145 -314 -102 -77 -262 -104 -441 -72 -139 25 -133 16 -78 127 60
118 127 205 203 260 76 55 70 63 -8 11 -70 -48 -139 -122 -197 -212 -100 -155
-144 -280 -265 -767 -10 -43 -46 -112 -73 -142 -28 -30 -113 -71 -150 -71
l-28 0 20 22 c44 47 84 148 181 458 29 90 60 183 70 205 40 90 45 113 45 195
-1 72 -5 93 -28 138 -66 130 -178 215 -360 271 -109 34 -136 33 -35 -2 123
-43 198 -87 273 -162 64 -63 88 -104 109 -186 13 -50 13 -51 -13 -60 -62 -24
-171 -39 -279 -39 -194 0 -297 36 -388 132 -82 86 -109 151 -139 330 -22 136
-42 204 -74 265 l-29 53 53 0 c29 0 99 -5 156 -10z"/>
</g>
</svg>
